<svg xmlns="http://www.w3.org/2000/svg" xmlns:xlink="http://www.w3.org/1999/xlink" width="500" zoomAndPan="magnify" viewBox="0 0 375 374.999991" height="500" preserveAspectRatio="xMidYMid meet" version="1.0"><defs><g/></defs><g fill="#5271ff" fill-opacity="1"><g transform="translate(158.83886, 196.499987)"><g><path d="M 11.921875 -28.921875 C 15.066406 -28.921875 17.523438 -28.132812 19.296875 -26.5625 C 21.066406 -24.988281 21.953125 -22.785156 21.953125 -19.953125 C 21.953125 -18.328125 21.625 -16.804688 20.96875 -15.390625 C 20.320312 -13.984375 19.269531 -12.835938 17.8125 -11.953125 C 16.363281 -11.078125 14.53125 -10.640625 12.3125 -10.640625 L 8.046875 -10.640625 L 8.046875 0 L 4.15625 0 L 4.15625 -28.921875 Z M 12.3125 -14.40625 C 13.707031 -14.40625 14.835938 -14.695312 15.703125 -15.28125 C 16.566406 -15.863281 17.1875 -16.578125 17.5625 -17.421875 C 17.9375 -18.265625 18.125 -19.082031 18.125 -19.875 C 18.125 -21.257812 17.671875 -22.492188 16.765625 -23.578125 C 15.859375 -24.660156 14.441406 -25.203125 12.515625 -25.203125 L 8.046875 -25.203125 L 8.046875 -14.40625 Z M 12.3125 -14.40625 "/></g></g></g><g fill="#ff5757" fill-opacity="1"><g transform="translate(182.627921, 196.499987)"><g><path d="M 29.359375 -28.921875 L 29.359375 0.953125 L 29.234375 0.953125 L 8 -20.59375 L 8.078125 0 L 4.15625 0 L 4.15625 -29.796875 L 4.359375 -29.796875 L 25.5625 -8 L 25.484375 -28.921875 Z M 29.359375 -28.921875 "/></g></g></g></svg>