<svg xmlns="http://www.w3.org/2000/svg" xmlns:xlink="http://www.w3.org/1999/xlink" width="500" zoomAndPan="magnify" viewBox="0 0 375 374.999991" height="500" preserveAspectRatio="xMidYMid meet" version="1.0"><defs><g/></defs><g fill="#5271ff" fill-opacity="1"><g transform="translate(84.65625, 196.499987)"><g><path d="M 11.921875 -28.921875 C 15.066406 -28.921875 17.523438 -28.132812 19.296875 -26.5625 C 21.066406 -24.988281 21.953125 -22.785156 21.953125 -19.953125 C 21.953125 -18.328125 21.625 -16.804688 20.96875 -15.390625 C 20.320312 -13.984375 19.269531 -12.835938 17.8125 -11.953125 C 16.363281 -11.078125 14.53125 -10.640625 12.3125 -10.640625 L 8.046875 -10.640625 L 8.046875 0 L 4.15625 0 L 4.15625 -28.921875 Z M 12.3125 -14.40625 C 13.707031 -14.40625 14.835938 -14.695312 15.703125 -15.28125 C 16.566406 -15.863281 17.1875 -16.578125 17.5625 -17.421875 C 17.9375 -18.265625 18.125 -19.082031 18.125 -19.875 C 18.125 -21.257812 17.671875 -22.492188 16.765625 -23.578125 C 15.859375 -24.660156 14.441406 -25.203125 12.515625 -25.203125 L 8.046875 -25.203125 L 8.046875 -14.40625 Z M 12.3125 -14.40625 "/></g></g></g><g fill="#5271ff" fill-opacity="1"><g transform="translate(108.453882, 196.499987)"><g><path d="M 6.953125 -16.5625 L 6.953125 0 L 3.234375 0 L 3.234375 -16.5625 Z M 2.953125 -22.53125 C 2.953125 -23.113281 3.175781 -23.601562 3.625 -24 C 4.082031 -24.40625 4.601562 -24.609375 5.1875 -24.609375 C 5.78125 -24.609375 6.296875 -24.40625 6.734375 -24 C 7.171875 -23.601562 7.390625 -23.113281 7.390625 -22.53125 C 7.390625 -21.9375 7.171875 -21.441406 6.734375 -21.046875 C 6.296875 -20.648438 5.78125 -20.453125 5.1875 -20.453125 C 4.601562 -20.453125 4.082031 -20.648438 3.625 -21.046875 C 3.175781 -21.441406 2.953125 -21.9375 2.953125 -22.53125 Z M 2.953125 -22.53125 "/></g></g></g><g fill="#5271ff" fill-opacity="1"><g transform="translate(118.652868, 196.499987)"><g><path d="M 7.203125 -3.078125 L 16.4375 -3.078125 L 16.4375 0 L 1.125 0 L 10.515625 -13.515625 L 4.796875 -13.515625 C 3.921875 -13.515625 3.203125 -13.773438 2.640625 -14.296875 C 2.078125 -14.816406 1.796875 -15.570312 1.796875 -16.5625 L 1.796875 -18.15625 L 4.640625 -18.15625 L 4.640625 -17.640625 C 4.640625 -17.210938 4.738281 -16.925781 4.9375 -16.78125 C 5.132812 -16.632812 5.488281 -16.5625 6 -16.5625 L 16.59375 -16.5625 Z M 7.203125 -3.078125 "/></g></g></g><g fill="#5271ff" fill-opacity="1"><g transform="translate(137.171032, 196.499987)"><g><path d="M 7.203125 -3.078125 L 16.4375 -3.078125 L 16.4375 0 L 1.125 0 L 10.515625 -13.515625 L 4.796875 -13.515625 C 3.921875 -13.515625 3.203125 -13.773438 2.640625 -14.296875 C 2.078125 -14.816406 1.796875 -15.570312 1.796875 -16.5625 L 1.796875 -18.15625 L 4.640625 -18.15625 L 4.640625 -17.640625 C 4.640625 -17.210938 4.738281 -16.925781 4.9375 -16.78125 C 5.132812 -16.632812 5.488281 -16.5625 6 -16.5625 L 16.59375 -16.5625 Z M 7.203125 -3.078125 "/></g></g></g><g fill="#5271ff" fill-opacity="1"><g transform="translate(155.689196, 196.499987)"><g><path d="M 20.234375 -16.5625 L 20.234375 0 L 16.515625 0 L 16.515625 -2.71875 C 15.929688 -1.945312 15.078125 -1.234375 13.953125 -0.578125 C 12.835938 0.078125 11.570312 0.40625 10.15625 0.40625 C 8.582031 0.40625 7.160156 0.0664062 5.890625 -0.609375 C 4.628906 -1.296875 3.628906 -2.289062 2.890625 -3.59375 C 2.160156 -4.90625 1.796875 -6.46875 1.796875 -8.28125 C 1.796875 -10.09375 2.175781 -11.671875 2.9375 -13.015625 C 3.695312 -14.367188 4.722656 -15.410156 6.015625 -16.140625 C 7.304688 -16.867188 8.738281 -17.234375 10.3125 -17.234375 C 11.726562 -17.234375 12.957031 -16.925781 14 -16.3125 C 15.039062 -15.707031 15.878906 -14.910156 16.515625 -13.921875 L 16.796875 -16.5625 Z M 11.15625 -2.6875 C 12.519531 -2.6875 13.6875 -3.0625 14.65625 -3.8125 C 15.632812 -4.570312 16.253906 -5.609375 16.515625 -6.921875 L 16.515625 -10.203125 C 16.203125 -11.367188 15.535156 -12.316406 14.515625 -13.046875 C 13.503906 -13.785156 12.347656 -14.15625 11.046875 -14.15625 C 10.054688 -14.15625 9.140625 -13.914062 8.296875 -13.4375 C 7.460938 -12.957031 6.796875 -12.285156 6.296875 -11.421875 C 5.804688 -10.554688 5.5625 -9.578125 5.5625 -8.484375 C 5.5625 -7.410156 5.8125 -6.429688 6.3125 -5.546875 C 6.820312 -4.671875 7.503906 -3.972656 8.359375 -3.453125 C 9.210938 -2.941406 10.144531 -2.6875 11.15625 -2.6875 Z M 11.15625 -2.6875 "/></g></g></g><g fill="#ff5757" fill-opacity="1"><g transform="translate(179.156243, 196.499987)"><g><path d="M 29.359375 -28.921875 L 29.359375 0.953125 L 29.234375 0.953125 L 8 -20.59375 L 8.078125 0 L 4.15625 0 L 4.15625 -29.796875 L 4.359375 -29.796875 L 25.5625 -8 L 25.484375 -28.921875 Z M 29.359375 -28.921875 "/></g></g></g><g fill="#ff5757" fill-opacity="1"><g transform="translate(212.672908, 196.499987)"><g><path d="M 11 -2.796875 C 12.382812 -2.796875 13.734375 -3.273438 15.046875 -4.234375 L 16.765625 -1.484375 C 15.878906 -0.890625 14.921875 -0.425781 13.890625 -0.09375 C 12.867188 0.238281 11.878906 0.40625 10.921875 0.40625 C 9.078125 0.40625 7.46875 0.0234375 6.09375 -0.734375 C 4.726562 -1.492188 3.671875 -2.539062 2.921875 -3.875 C 2.171875 -5.207031 1.796875 -6.71875 1.796875 -8.40625 C 1.796875 -10.03125 2.203125 -11.515625 3.015625 -12.859375 C 3.828125 -14.203125 4.941406 -15.265625 6.359375 -16.046875 C 7.773438 -16.835938 9.320312 -17.234375 11 -17.234375 C 13.15625 -17.234375 14.957031 -16.597656 16.40625 -15.328125 C 17.863281 -14.066406 18.863281 -12.304688 19.40625 -10.046875 L 6.28125 -5.4375 C 6.757812 -4.613281 7.40625 -3.96875 8.21875 -3.5 C 9.03125 -3.03125 9.957031 -2.796875 11 -2.796875 Z M 10.71875 -14.28125 C 9.195312 -14.28125 7.941406 -13.742188 6.953125 -12.671875 C 5.972656 -11.609375 5.484375 -10.25 5.484375 -8.59375 C 5.484375 -8.195312 5.492188 -7.894531 5.515625 -7.6875 L 15.15625 -11.234375 C 14.757812 -12.140625 14.191406 -12.875 13.453125 -13.4375 C 12.722656 -14 11.8125 -14.28125 10.71875 -14.28125 Z M 10.71875 -14.28125 "/></g></g></g><g fill="#ff5757" fill-opacity="1"><g transform="translate(233.470839, 196.499987)"><g><path d="M 19 -16.5625 L 10.15625 0.484375 L 9.953125 0.484375 L 0.765625 -16.5625 L 5.203125 -16.5625 L 10.203125 -6 L 14.84375 -16.5625 Z M 19 -16.5625 "/></g></g></g><g fill="#ff5757" fill-opacity="1"><g transform="translate(253.228879, 196.499987)"><g><path d="M 11 -2.796875 C 12.382812 -2.796875 13.734375 -3.273438 15.046875 -4.234375 L 16.765625 -1.484375 C 15.878906 -0.890625 14.921875 -0.425781 13.890625 -0.09375 C 12.867188 0.238281 11.878906 0.40625 10.921875 0.40625 C 9.078125 0.40625 7.46875 0.0234375 6.09375 -0.734375 C 4.726562 -1.492188 3.671875 -2.539062 2.921875 -3.875 C 2.171875 -5.207031 1.796875 -6.71875 1.796875 -8.40625 C 1.796875 -10.03125 2.203125 -11.515625 3.015625 -12.859375 C 3.828125 -14.203125 4.941406 -15.265625 6.359375 -16.046875 C 7.773438 -16.835938 9.320312 -17.234375 11 -17.234375 C 13.15625 -17.234375 14.957031 -16.597656 16.40625 -15.328125 C 17.863281 -14.066406 18.863281 -12.304688 19.40625 -10.046875 L 6.28125 -5.4375 C 6.757812 -4.613281 7.40625 -3.96875 8.21875 -3.5 C 9.03125 -3.03125 9.957031 -2.796875 11 -2.796875 Z M 10.71875 -14.28125 C 9.195312 -14.28125 7.941406 -13.742188 6.953125 -12.671875 C 5.972656 -11.609375 5.484375 -10.25 5.484375 -8.59375 C 5.484375 -8.195312 5.492188 -7.894531 5.515625 -7.6875 L 15.15625 -11.234375 C 14.757812 -12.140625 14.191406 -12.875 13.453125 -13.4375 C 12.722656 -14 11.8125 -14.28125 10.71875 -14.28125 Z M 10.71875 -14.28125 "/></g></g></g><g fill="#ff5757" fill-opacity="1"><g transform="translate(274.026809, 196.499987)"><g><path d="M 7.921875 0.359375 C 6.691406 0.359375 5.523438 0.144531 4.421875 -0.28125 C 3.316406 -0.707031 2.414062 -1.332031 1.71875 -2.15625 L 3.3125 -4.3125 C 3.976562 -3.675781 4.675781 -3.179688 5.40625 -2.828125 C 6.144531 -2.484375 6.875 -2.3125 7.59375 -2.3125 C 8.476562 -2.3125 9.195312 -2.484375 9.75 -2.828125 C 10.3125 -3.179688 10.59375 -3.71875 10.59375 -4.4375 C 10.59375 -5 10.421875 -5.453125 10.078125 -5.796875 C 9.734375 -6.140625 9.335938 -6.390625 8.890625 -6.546875 C 8.453125 -6.710938 7.71875 -6.957031 6.6875 -7.28125 C 3.851562 -8.1875 2.4375 -9.800781 2.4375 -12.125 C 2.4375 -13.507812 2.945312 -14.691406 3.96875 -15.671875 C 5 -16.660156 6.4375 -17.15625 8.28125 -17.15625 C 9.457031 -17.15625 10.5 -17.007812 11.40625 -16.71875 C 12.3125 -16.425781 13.148438 -15.957031 13.921875 -15.3125 L 12.4375 -13.046875 C 12.007812 -13.492188 11.46875 -13.847656 10.8125 -14.109375 C 10.164062 -14.378906 9.546875 -14.53125 8.953125 -14.5625 C 8.210938 -14.5625 7.570312 -14.378906 7.03125 -14.015625 C 6.5 -13.660156 6.234375 -13.175781 6.234375 -12.5625 C 6.234375 -12.050781 6.40625 -11.628906 6.75 -11.296875 C 7.101562 -10.960938 7.46875 -10.722656 7.84375 -10.578125 C 8.21875 -10.429688 8.953125 -10.1875 10.046875 -9.84375 C 11.398438 -9.382812 12.457031 -8.796875 13.21875 -8.078125 C 13.976562 -7.359375 14.359375 -6.382812 14.359375 -5.15625 C 14.359375 -3.5625 13.796875 -2.242188 12.671875 -1.203125 C 11.554688 -0.160156 9.972656 0.359375 7.921875 0.359375 Z M 7.921875 0.359375 "/></g></g></g></svg>